<?xml version="1.0" standalone="no"?><!DOCTYPE svg PUBLIC "-//W3C//DTD SVG 1.1//EN" "http://www.w3.org/Graphics/SVG/1.1/DTD/svg11.dtd"><svg t="1712841369031" class="icon" viewBox="0 0 1024 1024" version="1.1" xmlns="http://www.w3.org/2000/svg" p-id="5261" xmlns:xlink="http://www.w3.org/1999/xlink" width="200" height="200"><path d="M689.5 582.4c12.8 12.2 33.1 11.7 45.2-1.2s11.7-33.1-1.2-45.2c-30-28.5-64.7-50.6-102.2-65.5 44.5-35.1 73-89.6 73-150.7 0-106-85.9-191.9-191.9-191.9s-191.9 85.9-191.9 191.9c0 61.2 28.7 115.8 73.4 150.9-39.7 15.9-76.1 39.8-107.3 71-60.5 60.5-93.8 140.9-93.8 226.4v88.3c0 17.7 14.3 32 32 32s32-14.3 32-32v-88.3c0-141.3 114.9-256.2 256.2-256.2 66.1 0.1 128.7 25.1 176.5 70.5zM422.1 229.5c24.2-24.2 56.3-37.5 90.4-37.5 34.2 0 66.3 13.3 90.4 37.5 24.2 24.2 37.5 56.3 37.5 90.4 0 34.2-13.3 66.3-37.5 90.4-24.2 24.2-56.3 37.5-90.4 37.5-34.2 0-66.3-13.3-90.4-37.5-24.2-24.2-37.5-56.3-37.5-90.4 0-34.2 13.3-66.3 37.5-90.4z" fill="#060001" p-id="5262"></path><path d="M830.7 767.8H414.2c-12.9 0-24.6 7.8-29.6 19.8s-2.2 25.7 6.9 34.9l57.1 57.1c12.5 12.5 32.8 12.5 45.3 0s12.5-32.8 0-45.3l-2.5-2.5h339.2c17.7 0 32-14.3 32-32s-14.3-32-31.9-32zM750.9 637.4l2.5 2.5H416.6c-17.7 0-32 14.3-32 32s14.3 32 32 32h414.1c12.9 0 24.6-7.8 29.6-19.8s2.2-25.7-6.9-34.9l-57.1-57.1c-12.5-12.5-32.8-12.5-45.3 0-12.6 12.5-12.6 32.8-0.1 45.3z" p-id="5263"></path></svg>