<?xml version="1.0" standalone="no"?><!DOCTYPE svg PUBLIC "-//W3C//DTD SVG 1.1//EN" "http://www.w3.org/Graphics/SVG/1.1/DTD/svg11.dtd"><svg t="1712759707704" class="icon" viewBox="0 0 1024 1024" version="1.1" xmlns="http://www.w3.org/2000/svg" p-id="1458" xmlns:xlink="http://www.w3.org/1999/xlink" width="200" height="200"><path d="M901.8 499.3l-128.3-99.9c-10.4-8.1-25.5-0.6-25.5 12.7v67.4H544V276h67.9c13.3 0 20.8-15.1 12.7-25.5l-99.9-128.3c-6.4-8.3-19.1-8.3-25.5 0l-99.9 128.3c-8.1 10.4-0.6 25.5 12.7 25.5h68v203.5H276v-67.4c0-13.3-15.1-20.8-25.5-12.7l-128.3 99.9c-8.3 6.4-8.3 19.1 0 25.5l128.3 99.9c10.4 8.1 25.5 0.6 25.5-12.7v-68.4h204V748h-67.9c-13.3 0-20.8 15.1-12.7 25.5l99.9 128.3c6.4 8.3 19.1 8.3 25.5 0l99.9-128.3c8.1-10.4 0.6-25.5-12.7-25.5h-68V543.5h204v68.4c0 13.3 15.1 20.8 25.5 12.7l128.3-99.9c8.3-6.4 8.3-19 0-25.4z" p-id="1459"></path></svg>