<?xml version="1.0" standalone="no"?><!DOCTYPE svg PUBLIC "-//W3C//DTD SVG 1.1//EN" "http://www.w3.org/Graphics/SVG/1.1/DTD/svg11.dtd"><svg t="1712841221134" class="icon" viewBox="0 0 1024 1024" version="1.1" xmlns="http://www.w3.org/2000/svg" p-id="4282" xmlns:xlink="http://www.w3.org/1999/xlink" width="200" height="200"><path d="M457.237257 905.995399 439.871751 888.62887l0.070608-0.070608-82.559321-81.461313 0.543376-0.551562-1.128707 0.001023-0.013303-46.938032-40.938388-0.681522-0.00614-72.79391 40.925085 0-0.007163-29.335119-20.47124 0-0.007163-63.308885 20.461007 0.339738-0.022513-82.170464c-34.397415-14.192234-64.969711-37.766139-87.407746-67.683519-27.115568-36.153408-41.446971-79.21311-41.446971-124.526131 0-114.543779 93.187379-207.731158 207.731158-207.731158s207.731158 93.187379 207.731158 207.731158c0 44.959981-14.130835 87.74953-40.863686 123.743302-22.633486 30.474059-52.484352 53.774741-87.049588 68.113307l0 336.170412-0.036839 0 0.192382 0.192382L457.237257 905.995399zM434.588421 848.774163l22.719444 22.417569 33.541931-33.541931L490.849796 494.41039l0.528026 0-0.12689-0.398066c76.269058-24.295336 127.512139-94.448092 127.512139-174.564781 0-101.001345-82.170464-183.17181-183.17181-183.17181-101.001345 0-183.17181 82.170464-183.17181 183.17181 0 80.786954 51.725058 151.041018 128.765689 174.959777l0.084934 0.026606c0.112564 0.034792 0.229221 0.070608 0.342808 0.106424l-0.341784 1.111311 0.033769 123.147738-20.465101-0.339738 0.001023 13.778818 20.467147 0 0.021489 78.453816-40.930201 0 0.002047 24.080441 40.933271 0.681522 0.017396 60.792575 28.730345 28.347628 0.607844-271.861758 24.559349 0.054235L434.588421 848.774163zM435.592284 414.615019c-52.475142 0-95.167476-42.692335-95.167476-95.167476s42.692335-95.167476 95.167476-95.167476 95.167476 42.692335 95.167476 95.167476S488.067426 414.615019 435.592284 414.615019zM435.592284 248.839415c-38.933731 0-70.608128 31.674397-70.608128 70.608128s31.674397 70.608128 70.608128 70.608128 70.608128-31.674397 70.608128-70.608128S474.526015 248.839415 435.592284 248.839415z" p-id="4283"></path><path d="M707.791733 893.52232c-80.123852 0-145.30948-65.185628-145.30948-145.30948s65.185628-145.30948 145.30948-145.30948 145.30948 65.185628 145.30948 145.30948c0 29.118178-8.584516 57.214073-24.824385 81.251535l-20.35049-13.749142c13.487176-19.962657 20.615527-43.304272 20.615527-67.503417 0-66.581418-54.168714-120.750131-120.750131-120.750131s-120.750131 54.168714-120.750131 120.750131 54.168714 120.750131 120.750131 120.750131c14.33652 0 28.358885-2.483564 41.678238-7.382131l8.476045 23.049972C741.904669 890.531196 725.030349 893.52232 707.791733 893.52232z" p-id="4284"></path><path d="M799.24376 776.863117l26.60455 53.555935-21.995353 10.926454-26.60455-53.555935 21.995353-10.926454Z" p-id="4285"></path><path d="M867.485141 798.911749l10.805663 22.053376-68.221286 33.426911-10.805663-22.053376 68.221286-33.426911Z" p-id="4286"></path></svg>